<svg width="33" height="20" viewBox="0 0 33 20" fill="none" xmlns="http://www.w3.org/2000/svg">
<path d="M10.8796 7.49062V10.5292H6.80768V15.0519H4.07191V10.5292H0V7.49062H4.07191V2.96794H6.80768V7.49062H10.8796ZM24.4314 9.04527C24.0073 9.04527 23.6043 8.97454 23.2226 8.83325C24.0285 7.5141 24.4314 6.07725 24.4314 4.52259C24.4314 2.92087 24.0285 1.48401 23.2226 0.212027C23.6043 0.0706463 24.0073 0 24.4314 0C25.5766 0 26.531 0.447544 27.2945 1.34263C28.1004 2.19065 28.5033 3.25061 28.5033 4.52259C28.5033 5.74751 28.1004 6.80747 27.2945 7.70255C26.531 8.59773 25.5766 9.04527 24.4314 9.04527ZM20.4868 7.70255C19.7233 8.59773 18.7689 9.04527 17.6238 9.04527C16.5209 9.04527 15.5666 8.59773 14.7606 7.70255C13.9547 6.80747 13.5518 5.74751 13.5518 4.52259C13.5518 3.25061 13.9547 2.19065 14.7606 1.34263C15.5666 0.447544 16.5209 0 17.6238 0C18.7689 0 19.7233 0.447544 20.4868 1.34263C21.2927 2.19065 21.6957 3.25061 21.6957 4.52259C21.6957 5.74751 21.2927 6.80747 20.4868 7.70255ZM26.6583 12.2959C28.2276 12.5786 29.6061 13.0968 30.7939 13.8505C31.9815 14.6043 32.5753 15.4993 32.5753 16.5358V19.5745H28.5033V16.5358C28.5033 14.9341 27.8883 13.5207 26.6583 12.2959ZM12.2793 13.2852C14.1456 12.4372 15.9271 12.0132 17.6238 12.0132C19.3204 12.0132 21.1018 12.4372 22.9681 13.2852C24.8344 14.1332 25.7676 15.2167 25.7676 16.5358V19.5745H9.47994V16.5358C9.47994 15.2167 10.4131 14.1332 12.2793 13.2852Z" fill="url(#paint0_linear_728_4640)"/>
<defs>
<linearGradient id="paint0_linear_728_4640" x1="0" y1="10.8307" x2="36.9186" y2="10.8307" gradientUnits="userSpaceOnUse">
<stop stop-color="#FF7400"/>
<stop offset="1" stop-color="#F91717"/>
</linearGradient>
</defs>
</svg>
