<svg width="26" height="23" viewBox="0 0 26 23" fill="none" xmlns="http://www.w3.org/2000/svg">
<path d="M13.0691 8.85924V5.69261H9.34342V3.56506H13.0691V0.398438H15.5723V3.56506H19.2981V5.69261H15.5723V8.85924H13.0691ZM6.37448 19.0023C6.84016 18.5735 7.42229 18.3591 8.12088 18.3591C8.81948 18.3591 9.40161 18.5735 9.86729 19.0023C10.3719 19.3982 10.6241 19.893 10.6241 20.4867C10.6241 21.0474 10.3719 21.5257 9.86729 21.9215C9.40161 22.3504 8.81948 22.5648 8.12088 22.5648C7.42229 22.5648 6.84016 22.3504 6.37448 21.9215C5.90873 21.5257 5.67588 21.0474 5.67588 20.4867C5.67588 19.893 5.90873 19.3982 6.37448 19.0023ZM18.7741 19.0023C19.2787 18.5735 19.8608 18.3591 20.5206 18.3591C21.2191 18.3591 21.8013 18.5735 22.267 19.0023C22.7715 19.3982 23.0238 19.893 23.0238 20.4867C23.0238 21.0474 22.7715 21.5257 22.267 21.9215C21.8013 22.3504 21.2191 22.5648 20.5206 22.5648C19.8608 22.5648 19.2787 22.3504 18.7741 21.9215C18.3084 21.5257 18.0755 21.0474 18.0755 20.4867C18.0755 19.893 18.3084 19.3982 18.7741 19.0023ZM8.35372 14.9451C8.35372 15.11 8.45073 15.1925 8.64483 15.1925H23.0238V17.32H8.12088C7.42229 17.32 6.82078 17.1221 6.31621 16.7263C5.85053 16.2975 5.61769 15.7862 5.61769 15.1925C5.61769 14.8296 5.73408 14.4998 5.96692 14.2029L7.59694 11.5805L3.17262 3.56506H0.669434V1.48697H4.74445L5.90873 3.56506L7.073 5.69261L9.86729 10.69L10.0419 10.9868H18.7159L22.1505 5.69261L23.5477 3.56506L25.7016 4.60414L20.9281 11.9764C20.4623 12.7021 19.725 13.0649 18.7159 13.0649H9.4598L8.35372 14.7967V14.9451Z" fill="url(#paint0_linear_728_4639)"/>
<defs>
<linearGradient id="paint0_linear_728_4639" x1="0.669434" y1="11.2719" x2="28.3462" y2="11.2719" gradientUnits="userSpaceOnUse">
<stop offset="1" stop-color="#FF0000"/>
</linearGradient>
</defs>
</svg>
