<svg width="26" height="22" viewBox="0 0 26 22" fill="none" xmlns="http://www.w3.org/2000/svg">
<path d="M15.893 10.3912C15.0738 9.7908 13.8672 9.90579 13.1076 10.57L12.8245 10.8255L12.5267 10.57C11.7818 9.90579 10.5604 9.7908 9.74113 10.3912C8.80275 11.081 8.75811 12.3073 9.59217 13.0481L12.482 15.6029C12.6608 15.769 12.9735 15.769 13.1523 15.6029L16.0421 13.0481C16.8761 12.3073 16.8315 11.081 15.893 10.3912Z" fill="url(#paint0_linear_894_1181)"/>
<path fill-rule="evenodd" clip-rule="evenodd" d="M3.4183 12.8306V20.8777C3.42142 21.1474 3.54654 21.4055 3.76731 21.5976C3.98809 21.7898 4.28721 21.9008 4.60159 21.9075H20.9479C21.2628 21.9008 21.5624 21.7894 21.7831 21.5968C22.004 21.4041 22.1288 21.1454 22.1312 20.8752V12.8306C22.1351 12.6952 22.1073 12.5606 22.0497 12.4346C21.992 12.3086 21.9055 12.1937 21.7953 12.0967C21.6851 11.9999 21.5533 11.9229 21.4078 11.8703C21.2623 11.8177 21.1061 11.7906 20.9482 11.7906C20.7904 11.7906 20.6341 11.8177 20.4886 11.8703C20.3432 11.9229 20.2115 11.9999 20.1012 12.0967C19.991 12.1937 19.9044 12.3086 19.8468 12.4346C19.7891 12.5606 19.7613 12.6952 19.7653 12.8306V20.8777V19.8455H20.9479H4.60159H5.78417V20.8777V12.8306C5.78807 12.6952 5.7604 12.5606 5.7027 12.4346C5.64501 12.3086 5.5585 12.1937 5.44829 12.0967C5.33808 11.9999 5.20629 11.9229 5.06088 11.8703C4.9154 11.8177 4.75914 11.7906 4.60124 11.7906C4.44334 11.7906 4.28714 11.8177 4.14166 11.8703C3.99618 11.9229 3.86446 11.9999 3.75425 12.0967C3.64397 12.1937 3.55746 12.3086 3.49977 12.4346C3.44214 12.5606 3.4144 12.6952 3.4183 12.8306ZM2.01168 12.0669C3.29986 10.905 4.58945 9.74519 5.88054 8.58754C7.93799 6.73961 9.99389 4.89 12.0481 3.03869C12.4813 2.64824 12.826 2.50165 12.826 2.50165C14.1502 3.66349 14.4406 4.08186 15.7615 5.2429C17.8667 7.09583 19.9738 8.94707 22.0829 10.7967C22.5677 11.2198 23.0524 11.6487 23.5378 12.0718C23.7601 12.2614 24.0608 12.3679 24.3743 12.3679C24.6879 12.3679 24.9886 12.2614 25.2109 12.0718C25.4273 11.8739 25.5478 11.6127 25.5478 11.3413C25.5478 11.0699 25.4273 10.8087 25.2109 10.6107C23.8858 9.44932 22.5633 8.2881 21.2434 7.12706C19.1382 5.27413 17.0311 3.42289 14.922 1.57327C14.4372 1.14945 13.9525 0.721257 13.4671 0.298067C13.3575 0.203614 13.227 0.128628 13.0835 0.07749C12.94 0.0263517 12.786 0 12.6306 0C12.4751 0 12.3212 0.0263517 12.1777 0.07749C12.034 0.128628 11.9037 0.203614 11.794 0.298067C10.5049 1.45954 9.21524 2.61907 7.92515 3.77679C5.86763 5.62471 3.81181 7.47427 1.75762 9.32557C1.28463 9.75446 0.80866 10.1776 0.33858 10.6058C0.12114 10.8033 0 11.0646 0 11.3362C0 11.608 0.12114 11.8693 0.33858 12.0669C0.56184 12.2552 0.862382 12.3606 1.17548 12.3606C1.48859 12.3606 1.78849 12.2552 2.01168 12.0669Z" fill="url(#paint1_linear_894_1181)"/>
<defs>
<linearGradient id="paint0_linear_894_1181" x1="9.01124" y1="12.693" x2="16.6378" y2="12.693" gradientUnits="userSpaceOnUse">
<stop stop-color="#FF7400"/>
<stop offset="1" stop-color="#F91717"/>
</linearGradient>
<linearGradient id="paint1_linear_894_1181" x1="0" y1="10.9538" x2="25.5478" y2="10.9538" gradientUnits="userSpaceOnUse">
<stop stop-color="#FF7400"/>
<stop offset="1" stop-color="#F91717"/>
</linearGradient>
</defs>
</svg>
