<svg width="1440" height="89" viewBox="0 0 1440 89" fill="none" xmlns="http://www.w3.org/2000/svg">
<rect width="1440" height="89" fill="#E97868"/>
<path d="M500.84 26.08L490.6 54H483.8L473.56 26.08H479.56L487.24 48.28L494.88 26.08H500.84ZM507.538 29.2C506.551 29.2 505.724 28.8933 505.058 28.28C504.418 27.64 504.098 26.8533 504.098 25.92C504.098 24.9867 504.418 24.2133 505.058 23.6C505.724 22.96 506.551 22.64 507.538 22.64C508.524 22.64 509.338 22.96 509.978 23.6C510.644 24.2133 510.978 24.9867 510.978 25.92C510.978 26.8533 510.644 27.64 509.978 28.28C509.338 28.8933 508.524 29.2 507.538 29.2ZM510.298 31.84V54H504.698V31.84H510.298ZM522.85 36.44V47.16C522.85 47.9067 523.024 48.4533 523.37 48.8C523.744 49.12 524.357 49.28 525.21 49.28H527.81V54H524.29C519.57 54 517.21 51.7067 517.21 47.12V36.44H514.57V31.84H517.21V26.36H522.85V31.84H527.81V36.44H522.85ZM530.898 42.84C530.898 40.6 531.338 38.6133 532.218 36.88C533.125 35.1467 534.338 33.8133 535.858 32.88C537.405 31.9467 539.125 31.48 541.018 31.48C542.671 31.48 544.111 31.8133 545.338 32.48C546.591 33.1467 547.591 33.9867 548.338 35V31.84H553.978V54H548.338V50.76C547.618 51.8 546.618 52.6667 545.338 53.36C544.085 54.0267 542.631 54.36 540.978 54.36C539.111 54.36 537.405 53.88 535.858 52.92C534.338 51.96 533.125 50.6133 532.218 48.88C531.338 47.12 530.898 45.1067 530.898 42.84ZM548.338 42.92C548.338 41.56 548.071 40.4 547.538 39.44C547.005 38.4533 546.285 37.7067 545.378 37.2C544.471 36.6667 543.498 36.4 542.458 36.4C541.418 36.4 540.458 36.6533 539.578 37.16C538.698 37.6667 537.978 38.4133 537.418 39.4C536.885 40.36 536.618 41.5067 536.618 42.84C536.618 44.1733 536.885 45.3467 537.418 46.36C537.978 47.3467 538.698 48.1067 539.578 48.64C540.485 49.1733 541.445 49.44 542.458 49.44C543.498 49.44 544.471 49.1867 545.378 48.68C546.285 48.1467 547.005 47.4 547.538 46.44C548.071 45.4533 548.338 44.28 548.338 42.92ZM565.548 24.4V54H559.948V24.4H565.548ZM598.732 48.68H587.612L585.772 54H579.892L589.932 26.04H596.452L606.492 54H600.572L598.732 48.68ZM597.212 44.2L593.172 32.52L589.132 44.2H597.212ZM613.584 29.2C612.598 29.2 611.771 28.8933 611.104 28.28C610.464 27.64 610.144 26.8533 610.144 25.92C610.144 24.9867 610.464 24.2133 611.104 23.6C611.771 22.96 612.598 22.64 613.584 22.64C614.571 22.64 615.384 22.96 616.024 23.6C616.691 24.2133 617.024 24.9867 617.024 25.92C617.024 26.8533 616.691 27.64 616.024 28.28C615.384 28.8933 614.571 29.2 613.584 29.2ZM616.344 31.84V54H610.744V31.84H616.344ZM620.937 42.84C620.937 40.6 621.377 38.6133 622.257 36.88C623.164 35.1467 624.391 33.8133 625.937 32.88C627.484 31.9467 629.204 31.48 631.097 31.48C632.537 31.48 633.911 31.8 635.217 32.44C636.524 33.0533 637.564 33.88 638.337 34.92V24.4H644.017V54H638.337V50.72C637.644 51.8133 636.671 52.6933 635.417 53.36C634.164 54.0267 632.711 54.36 631.057 54.36C629.191 54.36 627.484 53.88 625.937 52.92C624.391 51.96 623.164 50.6133 622.257 48.88C621.377 47.12 620.937 45.1067 620.937 42.84ZM638.377 42.92C638.377 41.56 638.111 40.4 637.577 39.44C637.044 38.4533 636.324 37.7067 635.417 37.2C634.511 36.6667 633.537 36.4 632.497 36.4C631.457 36.4 630.497 36.6533 629.617 37.16C628.737 37.6667 628.017 38.4133 627.457 39.4C626.924 40.36 626.657 41.5067 626.657 42.84C626.657 44.1733 626.924 45.3467 627.457 46.36C628.017 47.3467 628.737 48.1067 629.617 48.64C630.524 49.1733 631.484 49.44 632.497 49.44C633.537 49.44 634.511 49.1867 635.417 48.68C636.324 48.1467 637.044 47.4 637.577 46.44C638.111 45.4533 638.377 44.28 638.377 42.92ZM665.618 49.56H674.818V54H660.018V26.08H665.618V49.56ZM681.717 29.2C680.731 29.2 679.904 28.8933 679.237 28.28C678.597 27.64 678.277 26.8533 678.277 25.92C678.277 24.9867 678.597 24.2133 679.237 23.6C679.904 22.96 680.731 22.64 681.717 22.64C682.704 22.64 683.517 22.96 684.157 23.6C684.824 24.2133 685.157 24.9867 685.157 25.92C685.157 26.8533 684.824 27.64 684.157 28.28C683.517 28.8933 682.704 29.2 681.717 29.2ZM684.477 31.84V54H678.877V31.84H684.477ZM700.67 36.44H696.79V54H691.11V36.44H688.59V31.84H691.11V30.72C691.11 28 691.883 26 693.43 24.72C694.977 23.44 697.31 22.84 700.43 22.92V27.64C699.07 27.6133 698.123 27.84 697.59 28.32C697.057 28.8 696.79 29.6667 696.79 30.92V31.84H700.67V36.44ZM725.399 42.44C725.399 43.24 725.346 43.96 725.239 44.6H709.039C709.172 46.2 709.732 47.4533 710.719 48.36C711.706 49.2667 712.919 49.72 714.359 49.72C716.439 49.72 717.919 48.8267 718.799 47.04H724.839C724.199 49.1733 722.972 50.9333 721.159 52.32C719.346 53.68 717.119 54.36 714.479 54.36C712.346 54.36 710.426 53.8933 708.719 52.96C707.039 52 705.719 50.6533 704.759 48.92C703.826 47.1867 703.359 45.1867 703.359 42.92C703.359 40.6267 703.826 38.6133 704.759 36.88C705.692 35.1467 706.999 33.8133 708.679 32.88C710.359 31.9467 712.292 31.48 714.479 31.48C716.586 31.48 718.466 31.9333 720.119 32.84C721.799 33.7467 723.092 35.04 723.999 36.72C724.932 38.3733 725.399 40.28 725.399 42.44ZM719.599 40.84C719.572 39.4 719.052 38.2533 718.039 37.4C717.026 36.52 715.786 36.08 714.319 36.08C712.932 36.08 711.759 36.5067 710.799 37.36C709.866 38.1867 709.292 39.3467 709.079 40.84H719.599ZM738.658 40C738.658 37.2533 739.271 34.8 740.498 32.64C741.751 30.4533 743.444 28.76 745.578 27.56C747.738 26.3333 750.151 25.72 752.818 25.72C755.938 25.72 758.671 26.52 761.018 28.12C763.364 29.72 765.004 31.9333 765.938 34.76H759.498C758.858 33.4267 757.951 32.4267 756.778 31.76C755.631 31.0933 754.298 30.76 752.778 30.76C751.151 30.76 749.698 31.1467 748.418 31.92C747.164 32.6667 746.178 33.7333 745.458 35.12C744.764 36.5067 744.418 38.1333 744.418 40C744.418 41.84 744.764 43.4667 745.458 44.88C746.178 46.2667 747.164 47.3467 748.418 48.12C749.698 48.8667 751.151 49.24 752.778 49.24C754.298 49.24 755.631 48.9067 756.778 48.24C757.951 47.5467 758.858 46.5333 759.498 45.2H765.938C765.004 48.0533 763.364 50.28 761.018 51.88C758.698 53.4533 755.964 54.24 752.818 54.24C750.151 54.24 747.738 53.64 745.578 52.44C743.444 51.2133 741.751 49.52 740.498 47.36C739.271 45.2 738.658 42.7467 738.658 40ZM769.781 42.84C769.781 40.6 770.221 38.6133 771.101 36.88C772.008 35.1467 773.221 33.8133 774.741 32.88C776.288 31.9467 778.008 31.48 779.901 31.48C781.554 31.48 782.994 31.8133 784.221 32.48C785.474 33.1467 786.474 33.9867 787.221 35V31.84H792.861V54H787.221V50.76C786.501 51.8 785.501 52.6667 784.221 53.36C782.968 54.0267 781.514 54.36 779.861 54.36C777.994 54.36 776.288 53.88 774.741 52.92C773.221 51.96 772.008 50.6133 771.101 48.88C770.221 47.12 769.781 45.1067 769.781 42.84ZM787.221 42.92C787.221 41.56 786.954 40.4 786.421 39.44C785.888 38.4533 785.168 37.7067 784.261 37.2C783.354 36.6667 782.381 36.4 781.341 36.4C780.301 36.4 779.341 36.6533 778.461 37.16C777.581 37.6667 776.861 38.4133 776.301 39.4C775.768 40.36 775.501 41.5067 775.501 42.84C775.501 44.1733 775.768 45.3467 776.301 46.36C776.861 47.3467 777.581 48.1067 778.461 48.64C779.368 49.1733 780.328 49.44 781.341 49.44C782.381 49.44 783.354 49.1867 784.261 48.68C785.168 48.1467 785.888 47.4 786.421 46.44C786.954 45.4533 787.221 44.28 787.221 42.92ZM826.35 31.52C829.07 31.52 831.257 32.36 832.91 34.04C834.59 35.6933 835.43 38.0133 835.43 41V54H829.83V41.76C829.83 40.0267 829.39 38.7067 828.51 37.8C827.63 36.8667 826.43 36.4 824.91 36.4C823.39 36.4 822.177 36.8667 821.27 37.8C820.39 38.7067 819.95 40.0267 819.95 41.76V54H814.35V41.76C814.35 40.0267 813.91 38.7067 813.03 37.8C812.15 36.8667 810.95 36.4 809.43 36.4C807.884 36.4 806.657 36.8667 805.75 37.8C804.87 38.7067 804.43 40.0267 804.43 41.76V54H798.83V31.84H804.43V34.52C805.15 33.5867 806.07 32.8533 807.19 32.32C808.337 31.7867 809.59 31.52 810.95 31.52C812.684 31.52 814.23 31.8933 815.59 32.64C816.95 33.36 818.004 34.4 818.75 35.76C819.47 34.48 820.51 33.4533 821.87 32.68C823.257 31.9067 824.75 31.52 826.35 31.52ZM846.844 35.04C847.564 34.0267 848.551 33.1867 849.804 32.52C851.084 31.8267 852.538 31.48 854.164 31.48C856.058 31.48 857.764 31.9467 859.284 32.88C860.831 33.8133 862.044 35.1467 862.924 36.88C863.831 38.5867 864.284 40.5733 864.284 42.84C864.284 45.1067 863.831 47.12 862.924 48.88C862.044 50.6133 860.831 51.96 859.284 52.92C857.764 53.88 856.058 54.36 854.164 54.36C852.538 54.36 851.098 54.0267 849.844 53.36C848.618 52.6933 847.618 51.8533 846.844 50.84V64.56H841.244V31.84H846.844V35.04ZM858.564 42.84C858.564 41.5067 858.284 40.36 857.724 39.4C857.191 38.4133 856.471 37.6667 855.564 37.16C854.684 36.6533 853.724 36.4 852.684 36.4C851.671 36.4 850.711 36.6667 849.804 37.2C848.924 37.7067 848.204 38.4533 847.644 39.44C847.111 40.4267 846.844 41.5867 846.844 42.92C846.844 44.2533 847.111 45.4133 847.644 46.4C848.204 47.3867 848.924 48.1467 849.804 48.68C850.711 49.1867 851.671 49.44 852.684 49.44C853.724 49.44 854.684 49.1733 855.564 48.64C856.471 48.1067 857.191 47.3467 857.724 46.36C858.284 45.3733 858.564 44.2 858.564 42.84ZM867.414 42.84C867.414 40.6 867.854 38.6133 868.734 36.88C869.64 35.1467 870.854 33.8133 872.374 32.88C873.92 31.9467 875.64 31.48 877.534 31.48C879.187 31.48 880.627 31.8133 881.854 32.48C883.107 33.1467 884.107 33.9867 884.854 35V31.84H890.494V54H884.854V50.76C884.134 51.8 883.134 52.6667 881.854 53.36C880.6 54.0267 879.147 54.36 877.494 54.36C875.627 54.36 873.92 53.88 872.374 52.92C870.854 51.96 869.64 50.6133 868.734 48.88C867.854 47.12 867.414 45.1067 867.414 42.84ZM884.854 42.92C884.854 41.56 884.587 40.4 884.054 39.44C883.52 38.4533 882.8 37.7067 881.894 37.2C880.987 36.6667 880.014 36.4 878.974 36.4C877.934 36.4 876.974 36.6533 876.094 37.16C875.214 37.6667 874.494 38.4133 873.934 39.4C873.4 40.36 873.134 41.5067 873.134 42.84C873.134 44.1733 873.4 45.3467 873.934 46.36C874.494 47.3467 875.214 48.1067 876.094 48.64C877 49.1733 877.96 49.44 878.974 49.44C880.014 49.44 880.987 49.1867 881.894 48.68C882.8 48.1467 883.52 47.4 884.054 46.44C884.587 45.4533 884.854 44.28 884.854 42.92ZM899.303 29.2C898.316 29.2 897.49 28.8933 896.823 28.28C896.183 27.64 895.863 26.8533 895.863 25.92C895.863 24.9867 896.183 24.2133 896.823 23.6C897.49 22.96 898.316 22.64 899.303 22.64C900.29 22.64 901.103 22.96 901.743 23.6C902.41 24.2133 902.743 24.9867 902.743 25.92C902.743 26.8533 902.41 27.64 901.743 28.28C901.103 28.8933 900.29 29.2 899.303 29.2ZM902.063 31.84V54H896.463V31.84H902.063ZM916.776 31.48C918.429 31.48 919.883 31.8133 921.136 32.48C922.389 33.12 923.376 33.96 924.096 35V31.84H929.736V54.16C929.736 56.2133 929.323 58.04 928.496 59.64C927.669 61.2667 926.429 62.5467 924.776 63.48C923.123 64.44 921.123 64.92 918.776 64.92C915.629 64.92 913.043 64.1867 911.016 62.72C909.016 61.2533 907.883 59.2533 907.616 56.72H913.176C913.469 57.7333 914.096 58.5333 915.056 59.12C916.043 59.7333 917.229 60.04 918.616 60.04C920.243 60.04 921.563 59.5467 922.576 58.56C923.589 57.6 924.096 56.1333 924.096 54.16V50.72C923.376 51.76 922.376 52.6267 921.096 53.32C919.843 54.0133 918.403 54.36 916.776 54.36C914.909 54.36 913.203 53.88 911.656 52.92C910.109 51.96 908.883 50.6133 907.976 48.88C907.096 47.12 906.656 45.1067 906.656 42.84C906.656 40.6 907.096 38.6133 907.976 36.88C908.883 35.1467 910.096 33.8133 911.616 32.88C913.163 31.9467 914.883 31.48 916.776 31.48ZM924.096 42.92C924.096 41.56 923.829 40.4 923.296 39.44C922.763 38.4533 922.043 37.7067 921.136 37.2C920.229 36.6667 919.256 36.4 918.216 36.4C917.176 36.4 916.216 36.6533 915.336 37.16C914.456 37.6667 913.736 38.4133 913.176 39.4C912.643 40.36 912.376 41.5067 912.376 42.84C912.376 44.1733 912.643 45.3467 913.176 46.36C913.736 47.3467 914.456 48.1067 915.336 48.64C916.243 49.1733 917.203 49.44 918.216 49.44C919.256 49.44 920.229 49.1867 921.136 48.68C922.043 48.1467 922.763 47.4 923.296 46.44C923.829 45.4533 924.096 44.28 924.096 42.92ZM947.985 31.52C950.625 31.52 952.759 32.36 954.385 34.04C956.012 35.6933 956.825 38.0133 956.825 41V54H951.225V41.76C951.225 40 950.785 38.6533 949.905 37.72C949.025 36.76 947.825 36.28 946.305 36.28C944.759 36.28 943.532 36.76 942.625 37.72C941.745 38.6533 941.305 40 941.305 41.76V54H935.705V31.84H941.305V34.6C942.052 33.64 942.999 32.8933 944.145 32.36C945.319 31.8 946.599 31.52 947.985 31.52ZM971.131 54.36C969.317 54.36 967.691 54.04 966.251 53.4C964.811 52.7333 963.664 51.84 962.811 50.72C961.984 49.6 961.531 48.36 961.451 47H967.091C967.197 47.8533 967.611 48.56 968.331 49.12C969.077 49.68 969.997 49.96 971.091 49.96C972.157 49.96 972.984 49.7467 973.571 49.32C974.184 48.8933 974.491 48.3467 974.491 47.68C974.491 46.96 974.117 46.4267 973.371 46.08C972.651 45.7067 971.491 45.3067 969.891 44.88C968.237 44.48 966.877 44.0667 965.811 43.64C964.771 43.2133 963.864 42.56 963.091 41.68C962.344 40.8 961.971 39.6133 961.971 38.12C961.971 36.8933 962.317 35.7733 963.011 34.76C963.731 33.7467 964.744 32.9467 966.051 32.36C967.384 31.7733 968.944 31.48 970.731 31.48C973.371 31.48 975.477 32.1467 977.051 33.48C978.624 34.7867 979.491 36.56 979.651 38.8H974.291C974.211 37.92 973.837 37.2267 973.171 36.72C972.531 36.1867 971.664 35.92 970.571 35.92C969.557 35.92 968.771 36.1067 968.211 36.48C967.677 36.8533 967.411 37.3733 967.411 38.04C967.411 38.7867 967.784 39.36 968.531 39.76C969.277 40.1333 970.437 40.52 972.011 40.92C973.611 41.32 974.931 41.7333 975.971 42.16C977.011 42.5867 977.904 43.2533 978.651 44.16C979.424 45.04 979.824 46.2133 979.851 47.68C979.851 48.96 979.491 50.1067 978.771 51.12C978.077 52.1333 977.064 52.9333 975.731 53.52C974.424 54.08 972.891 54.36 971.131 54.36Z" fill="black"/>
</svg>
