<svg width="12" height="14" viewBox="0 0 12 14" fill="none" xmlns="http://www.w3.org/2000/svg">
<path d="M6 14C5.8 14 5.62857 13.9533 5.48571 13.86C5.34286 13.7667 5.23571 13.6442 5.16429 13.4925C4.89286 12.8392 4.55 12.2267 4.13571 11.655C3.73571 11.0833 3.17143 10.4125 2.44286 9.6425C1.71429 8.8725 1.12143 8.1375 0.664286 7.4375C0.221429 6.7375 0 5.89167 0 4.9C0 3.535 0.578571 2.38 1.73571 1.435C2.90714 0.478333 4.32857 0 6 0C7.67143 0 9.08571 0.478333 10.2429 1.435C11.4143 2.38 12 3.535 12 4.9C12 5.96167 11.75 6.84833 11.25 7.56C10.7643 8.26 10.2 8.95417 9.55714 9.6425C8.78571 10.4825 8.2 11.1825 7.8 11.7425C7.41429 12.2908 7.09286 12.8742 6.83571 13.4925C6.76429 13.6558 6.65 13.7842 6.49286 13.8775C6.35 13.9592 6.18571 14 6 14ZM6 6.65C6.6 6.65 7.10714 6.48083 7.52143 6.1425C7.93571 5.80417 8.14286 5.39 8.14286 4.9C8.14286 4.41 7.93571 3.99583 7.52143 3.6575C7.10714 3.31917 6.6 3.15 6 3.15C5.4 3.15 4.89286 3.31917 4.47857 3.6575C4.06429 3.99583 3.85714 4.41 3.85714 4.9C3.85714 5.39 4.06429 5.80417 4.47857 6.1425C4.89286 6.48083 5.4 6.65 6 6.65Z" fill="#1D1B20"/>
</svg>
