<svg width="276" height="47" viewBox="0 0 276 47" fill="none" xmlns="http://www.w3.org/2000/svg">
<g opacity="0.7">
<path d="M15.2183 34.336C12.4023 34.336 9.90625 33.744 7.73025 32.56C5.58625 31.344 3.92225 29.68 2.73825 27.568C1.55425 25.424 0.962253 22.976 0.962253 20.224C0.962253 16.384 1.81025 12.928 3.50625 9.856C5.23425 6.784 7.60225 4.384 10.6103 2.656C13.6503 0.895999 17.0583 0.0159998 20.8343 0.0159998C23.6823 0.0159998 26.1783 0.608 28.3223 1.792C30.4983 2.976 32.1783 4.64 33.3623 6.784C34.5463 8.896 35.1383 11.312 35.1383 14.032C35.1383 17.936 34.2903 21.424 32.5943 24.496C30.8983 27.568 28.5303 29.984 25.4903 31.744C22.4503 33.472 19.0263 34.336 15.2183 34.336ZM16.1783 28.144C18.5783 28.144 20.6903 27.536 22.5143 26.32C24.3703 25.104 25.7943 23.472 26.7863 21.424C27.8103 19.344 28.3223 17.088 28.3223 14.656C28.3223 12.032 27.5863 9.968 26.1143 8.464C24.6423 6.96 22.5783 6.208 19.9223 6.208C17.5543 6.208 15.4423 6.816 13.5863 8.032C11.7623 9.248 10.3383 10.88 9.31425 12.928C8.32225 14.976 7.82625 17.216 7.82625 19.648C7.82625 22.272 8.54625 24.352 9.98625 25.888C11.4583 27.392 13.5223 28.144 16.1783 28.144ZM67.1177 7.408L62.4137 34H55.6937L56.2697 30.64C55.2457 31.792 53.9817 32.704 52.4777 33.376C50.9737 34.016 49.3897 34.336 47.7257 34.336C44.9737 34.336 42.7977 33.6 41.1977 32.128C39.5977 30.624 38.7977 28.496 38.7977 25.744C38.7977 24.72 38.8777 23.808 39.0377 23.008L41.7737 7.408H48.4937L45.9017 22.048C45.8057 22.624 45.7577 23.184 45.7577 23.728C45.7577 25.296 46.1897 26.512 47.0537 27.376C47.9177 28.208 49.1337 28.624 50.7017 28.624C52.5257 28.624 54.0777 28.064 55.3577 26.944C56.6377 25.792 57.4537 24.16 57.8057 22.048L60.3977 7.408H67.1177ZM79.8001 12.112C80.9521 10.512 82.2961 9.264 83.8321 8.368C85.3681 7.472 87.0321 7.024 88.8241 7.024L87.5761 14.08H85.8001C83.8161 14.08 82.2161 14.512 81.0001 15.376C79.8161 16.24 78.9521 17.712 78.4081 19.792L75.9121 34H69.1441L73.8481 7.408H80.6161L79.8001 12.112Z" fill="#4D0DFF"/>
<path d="M109.29 0.303999V34H101.082V0.303999H109.29ZM149.514 6.928C152.842 6.928 155.482 7.936 157.434 9.952C159.418 11.968 160.41 14.768 160.41 18.352V34H152.25V19.456C152.25 17.728 151.786 16.4 150.858 15.472C149.962 14.512 148.714 14.032 147.114 14.032C145.514 14.032 144.25 14.512 143.322 15.472C142.426 16.4 141.978 17.728 141.978 19.456V34H133.818V19.456C133.818 17.728 133.354 16.4 132.426 15.472C131.53 14.512 130.282 14.032 128.682 14.032C127.082 14.032 125.818 14.512 124.89 15.472C123.994 16.4 123.546 17.728 123.546 19.456V34H115.338V7.216H123.546V10.576C124.378 9.456 125.466 8.576 126.81 7.936C128.154 7.264 129.674 6.928 131.37 6.928C133.386 6.928 135.178 7.36 136.746 8.224C138.346 9.088 139.594 10.32 140.49 11.92C141.418 10.448 142.682 9.248 144.282 8.32C145.882 7.392 147.626 6.928 149.514 6.928ZM174.459 11.008C175.259 9.76 176.363 8.752 177.771 7.984C179.179 7.216 180.827 6.832 182.715 6.832C184.923 6.832 186.923 7.392 188.715 8.512C190.507 9.632 191.915 11.232 192.939 13.312C193.995 15.392 194.523 17.808 194.523 20.56C194.523 23.312 193.995 25.744 192.939 27.856C191.915 29.936 190.507 31.552 188.715 32.704C186.923 33.824 184.923 34.384 182.715 34.384C180.859 34.384 179.211 34 177.771 33.232C176.363 32.464 175.259 31.472 174.459 30.256V46.768H166.251V7.216H174.459V11.008ZM186.171 20.56C186.171 18.512 185.595 16.912 184.443 15.76C183.323 14.576 181.931 13.984 180.267 13.984C178.635 13.984 177.243 14.576 176.091 15.76C174.971 16.944 174.411 18.56 174.411 20.608C174.411 22.656 174.971 24.272 176.091 25.456C177.243 26.64 178.635 27.232 180.267 27.232C181.899 27.232 183.291 26.64 184.443 25.456C185.595 24.24 186.171 22.608 186.171 20.56ZM197.297 20.56C197.297 17.808 197.809 15.392 198.833 13.312C199.889 11.232 201.313 9.632 203.105 8.512C204.897 7.392 206.897 6.832 209.105 6.832C210.993 6.832 212.641 7.216 214.049 7.984C215.489 8.752 216.593 9.76 217.361 11.008V7.216H225.569V34H217.361V30.208C216.561 31.456 215.441 32.464 214.001 33.232C212.593 34 210.945 34.384 209.057 34.384C206.881 34.384 204.897 33.824 203.105 32.704C201.313 31.552 199.889 29.936 198.833 27.856C197.809 25.744 197.297 23.312 197.297 20.56ZM217.361 20.608C217.361 18.56 216.785 16.944 215.633 15.76C214.513 14.576 213.137 13.984 211.505 13.984C209.873 13.984 208.481 14.576 207.329 15.76C206.209 16.912 205.649 18.512 205.649 20.56C205.649 22.608 206.209 24.24 207.329 25.456C208.481 26.64 209.873 27.232 211.505 27.232C213.137 27.232 214.513 26.64 215.633 25.456C216.785 24.272 217.361 22.656 217.361 20.608ZM229.975 20.608C229.975 17.824 230.535 15.392 231.655 13.312C232.807 11.232 234.391 9.632 236.407 8.512C238.455 7.392 240.791 6.832 243.415 6.832C246.775 6.832 249.575 7.712 251.815 9.472C254.087 11.232 255.575 13.712 256.279 16.912H247.543C246.807 14.864 245.383 13.84 243.271 13.84C241.767 13.84 240.567 14.432 239.671 15.616C238.775 16.768 238.327 18.432 238.327 20.608C238.327 22.784 238.775 24.464 239.671 25.648C240.567 26.8 241.767 27.376 243.271 27.376C245.383 27.376 246.807 26.352 247.543 24.304H256.279C255.575 27.44 254.087 29.904 251.815 31.696C249.543 33.488 246.743 34.384 243.415 34.384C240.791 34.384 238.455 33.824 236.407 32.704C234.391 31.584 232.807 29.984 231.655 27.904C230.535 25.824 229.975 23.392 229.975 20.608ZM275.698 27.04V34H271.522C268.546 34 266.226 33.28 264.562 31.84C262.898 30.368 262.066 27.984 262.066 24.688V14.032H258.802V7.216H262.066V0.688H270.274V7.216H275.65V14.032H270.274V24.784C270.274 25.584 270.466 26.16 270.85 26.512C271.234 26.864 271.874 27.04 272.77 27.04H275.698Z" fill="black"/>
</g>
</svg>
