<svg width="12" height="14" viewBox="0 0 12 14" fill="none" xmlns="http://www.w3.org/2000/svg">
<g clip-path="url(#clip0_728_1825)">
<path d="M7.52497 2.81611C8.01333 2.92344 8.46216 3.19248 8.814 3.58881C9.16584 3.98513 9.40468 4.4907 9.49997 5.04082M7.52497 0.563232C8.5396 0.690202 9.48576 1.20202 10.2081 2.01465C10.9304 2.82728 11.386 3.89242 11.5 5.03519M11 9.52967V11.2193C11.0005 11.3762 10.972 11.5314 10.9162 11.6752C10.8604 11.8189 10.7786 11.9479 10.676 12.0539C10.5734 12.16 10.4523 12.2407 10.3203 12.291C10.1884 12.3412 10.0487 12.3599 9.90997 12.3458C8.37138 12.1574 6.89347 11.5652 5.59497 10.6167C4.38688 9.75195 3.36263 8.5982 2.59497 7.23737C1.74996 5.76805 1.22409 4.09517 1.05997 2.35427C1.04747 2.19852 1.0639 2.04155 1.10822 1.89334C1.15253 1.74514 1.22375 1.60895 1.31735 1.49346C1.41095 1.37796 1.52487 1.28568 1.65186 1.22249C1.77886 1.15931 1.91614 1.1266 2.05497 1.12645H3.55497C3.79762 1.12376 4.03286 1.22055 4.21685 1.39879C4.40083 1.57702 4.52101 1.82453 4.55497 2.09519C4.61828 2.63591 4.73569 3.16684 4.90497 3.67783C4.97224 3.87942 4.9868 4.09851 4.94692 4.30913C4.90704 4.51975 4.8144 4.71309 4.67997 4.86622L4.04497 5.58151C4.75674 6.99155 5.79319 8.15905 7.04497 8.96082L7.67997 8.24553C7.81591 8.0941 7.98754 7.98975 8.17453 7.94483C8.36151 7.89991 8.556 7.91631 8.73497 7.99208C9.1886 8.18276 9.65993 8.31502 10.14 8.38634C10.3828 8.42493 10.6047 8.56274 10.7632 8.77355C10.9218 8.98435 11.0061 9.25345 11 9.52967Z" stroke="black" stroke-opacity="0.8" stroke-width="2" stroke-linecap="round" stroke-linejoin="round"/>
</g>
<defs>
<clipPath id="clip0_728_1825">
<rect width="12" height="13.5172" fill="white"/>
</clipPath>
</defs>
</svg>
