<svg width="33" height="20" viewBox="0 0 33 20" fill="none" xmlns="http://www.w3.org/2000/svg">
<path d="M11.0215 7.5883V10.6665H6.89646V15.2482H4.12501V10.6665H0V7.5883H4.12501V3.00664H6.89646V7.5883H11.0215ZM24.75 9.16323C24.3204 9.16323 23.9122 9.09157 23.5254 8.94844C24.3419 7.61209 24.75 6.1565 24.75 4.58157C24.75 2.95896 24.3419 1.50336 23.5254 0.214792C23.9122 0.0715676 24.3204 0 24.75 0C25.9102 0 26.877 0.45338 27.6504 1.36014C28.4669 2.21922 28.8751 3.293 28.8751 4.58157C28.8751 5.82246 28.4669 6.89624 27.6504 7.803C26.877 8.70985 25.9102 9.16323 24.75 9.16323ZM20.754 7.803C19.9805 8.70985 19.0137 9.16323 17.8536 9.16323C16.7364 9.16323 15.7695 8.70985 14.9531 7.803C14.1367 6.89624 13.7286 5.82246 13.7286 4.58157C13.7286 3.293 14.1367 2.21922 14.9531 1.36014C15.7695 0.45338 16.7364 0 17.8536 0C19.0137 0 19.9805 0.45338 20.754 1.36014C21.5704 2.21922 21.9786 3.293 21.9786 4.58157C21.9786 5.82246 21.5704 6.89624 20.754 7.803ZM27.0059 12.4562C28.5957 12.7426 29.9922 13.2676 31.1954 14.0312C32.3985 14.7948 33.0001 15.7015 33.0001 16.7514V19.8297H28.8751V16.7514C28.8751 15.1288 28.252 13.697 27.0059 12.4562ZM12.4395 13.4584C14.3301 12.5994 16.1348 12.1699 17.8536 12.1699C19.5723 12.1699 21.377 12.5994 23.2676 13.4584C25.1582 14.3175 26.1036 15.4152 26.1036 16.7514V19.8297H9.60357V16.7514C9.60357 15.4152 10.5489 14.3175 12.4395 13.4584Z" fill="url(#paint0_linear_728_1852)"/>
<defs>
<linearGradient id="paint0_linear_728_1852" x1="0" y1="10.972" x2="37.4001" y2="10.972" gradientUnits="userSpaceOnUse">
<stop stop-color="#FF7400"/>
<stop offset="1" stop-color="#F91717"/>
</linearGradient>
</defs>
</svg>
