<svg width="26" height="23" viewBox="0 0 26 23" fill="none" xmlns="http://www.w3.org/2000/svg">
<path d="M12.8661 8.77904V5.49331H9.00024V3.28573H12.8661V0H15.4634V3.28573H19.3293V5.49331H15.4634V8.77904H12.8661ZM5.91963 19.3036C6.40282 18.8587 7.00685 18.6362 7.73172 18.6362C8.45659 18.6362 9.06062 18.8587 9.54382 19.3036C10.0674 19.7144 10.3291 20.2278 10.3291 20.8438C10.3291 21.4257 10.0674 21.922 9.54382 22.3326C9.06062 22.7776 8.45659 23.0001 7.73172 23.0001C7.00685 23.0001 6.40282 22.7776 5.91963 22.3326C5.43636 21.922 5.19476 21.4257 5.19476 20.8438C5.19476 20.2278 5.43636 19.7144 5.91963 19.3036ZM18.7857 19.3036C19.3092 18.8587 19.9132 18.6362 20.5978 18.6362C21.3226 18.6362 21.9266 18.8587 22.4099 19.3036C22.9334 19.7144 23.1952 20.2278 23.1952 20.8438C23.1952 21.4257 22.9334 21.922 22.4099 22.3326C21.9266 22.7776 21.3226 23.0001 20.5978 23.0001C19.9132 23.0001 19.3092 22.7776 18.7857 22.3326C18.3025 21.922 18.0608 21.4257 18.0608 20.8438C18.0608 20.2278 18.3025 19.7144 18.7857 19.3036ZM7.97332 15.0938C7.97332 15.2649 8.07398 15.3505 8.27537 15.3505H23.1952V17.5581H7.73172C7.00685 17.5581 6.38272 17.3527 5.85917 16.942C5.37598 16.4971 5.13438 15.9666 5.13438 15.3505C5.13438 14.974 5.25514 14.6318 5.49674 14.3237L7.18807 11.6027L2.59734 3.28573H0V1.12948H4.2283L5.43636 3.28573L6.64442 5.49331L9.54382 10.6786L9.72503 10.9866H18.7253L22.2891 5.49331L23.7388 3.28573L25.9737 4.36389L21.0206 12.0135C20.5374 12.7664 19.7723 13.1429 18.7253 13.1429H9.121L7.97332 14.9398V15.0938Z" fill="url(#paint0_linear_728_1851)"/>
<defs>
<linearGradient id="paint0_linear_728_1851" x1="0" y1="11.2825" x2="28.7178" y2="11.2825" gradientUnits="userSpaceOnUse">
<stop offset="1" stop-color="#FF0000"/>
</linearGradient>
</defs>
</svg>
