<svg width="16" height="14" viewBox="0 0 16 14" fill="none" xmlns="http://www.w3.org/2000/svg">
<path d="M15.9958 6.98496C15.9958 7.47706 15.579 7.86253 15.1067 7.86253H14.2176L14.237 12.2421C14.237 12.316 14.2315 12.3898 14.2231 12.4636V12.9065C14.2231 13.5106 13.7258 14 13.1117 14H12.6672C12.6366 14 12.606 14 12.5755 13.9973C12.5366 14 12.4977 14 12.4588 14L11.5558 13.9973H10.8889C10.2749 13.9973 9.77753 13.5079 9.77753 12.9037V12.2476V10.498C9.77753 10.0141 9.3802 9.62312 8.88841 9.62312H7.11017C6.61838 9.62312 6.22105 10.0141 6.22105 10.498V12.2476V12.9037C6.22105 13.5079 5.7237 13.9973 5.10965 13.9973H4.44282H3.55648C3.5148 13.9973 3.47312 13.9945 3.43144 13.9918C3.3981 13.9945 3.36476 13.9973 3.33142 13.9973H2.88686C2.27281 13.9973 1.77546 13.5079 1.77546 12.9037V9.84183C1.77546 9.81722 1.77546 9.78989 1.77824 9.76528V7.85979H0.889119C0.388989 7.85979 0 7.47706 0 6.98223C0 6.73618 0.0833549 6.51748 0.27785 6.32611L7.39914 0.218707C7.59363 0.0273384 7.81591 0 8.0104 0C8.2049 0 8.42718 0.0546768 8.59389 0.191369L15.6902 6.32884C15.9124 6.52021 16.0236 6.73892 15.9958 6.98496Z" fill="white"/>
</svg>
